<mxfile host="app.diagrams.net" modified="2022-06-21T13:22:54.728Z" agent="5.0 (Windows NT 10.0; Win64; x64) AppleWebKit/537.36 (KHTML, like Gecko) Chrome/100.0.4896.127 Safari/537.36" etag="vMpNCSi4zZv37Mk4Fgsb" version="18.1.3" type="github">
  <diagram id="pBzqKGmwR5cGfDIjPu3t" name="Page-1">
    <mxGraphModel dx="1550" dy="835" grid="1" gridSize="10" guides="1" tooltips="1" connect="1" arrows="1" fold="1" page="1" pageScale="1" pageWidth="827" pageHeight="1169" math="0" shadow="0">
      <root>
        <mxCell id="0" />
        <mxCell id="1" parent="0" />
        <mxCell id="1_-RMzWt7AfscWZdjuar-1" value="" style="shape=table;html=1;whiteSpace=wrap;startSize=0;container=1;collapsible=0;childLayout=tableLayout;flipH=1;flipV=0;" parent="1" vertex="1">
          <mxGeometry x="270" y="100" width="81" height="720" as="geometry" />
        </mxCell>
        <mxCell id="1_-RMzWt7AfscWZdjuar-128" style="shape=tableRow;horizontal=0;startSize=0;swimlaneHead=0;swimlaneBody=0;top=0;left=0;bottom=0;right=0;collapsible=0;dropTarget=0;fillColor=none;points=[[0,0.5],[1,0.5]];portConstraint=eastwest;" parent="1_-RMzWt7AfscWZdjuar-1" vertex="1">
          <mxGeometry width="81" height="30" as="geometry" />
        </mxCell>
        <mxCell id="1_-RMzWt7AfscWZdjuar-129" value="23" style="shape=partialRectangle;html=1;whiteSpace=wrap;connectable=0;fillColor=none;top=0;left=0;bottom=0;right=0;overflow=hidden;strokeColor=#FF0000;" parent="1_-RMzWt7AfscWZdjuar-128" vertex="1">
          <mxGeometry width="40" height="30" as="geometry">
            <mxRectangle width="40" height="30" as="alternateBounds" />
          </mxGeometry>
        </mxCell>
        <mxCell id="1_-RMzWt7AfscWZdjuar-130" value="0" style="shape=partialRectangle;html=1;whiteSpace=wrap;connectable=0;fillColor=none;top=0;left=0;bottom=0;right=0;overflow=hidden;fontColor=#FF0000;" parent="1_-RMzWt7AfscWZdjuar-128" vertex="1">
          <mxGeometry x="40" width="41" height="30" as="geometry">
            <mxRectangle width="41" height="30" as="alternateBounds" />
          </mxGeometry>
        </mxCell>
        <mxCell id="1_-RMzWt7AfscWZdjuar-131" style="shape=tableRow;horizontal=0;startSize=0;swimlaneHead=0;swimlaneBody=0;top=0;left=0;bottom=0;right=0;collapsible=0;dropTarget=0;fillColor=none;points=[[0,0.5],[1,0.5]];portConstraint=eastwest;" parent="1_-RMzWt7AfscWZdjuar-1" vertex="1">
          <mxGeometry y="30" width="81" height="30" as="geometry" />
        </mxCell>
        <mxCell id="1_-RMzWt7AfscWZdjuar-132" value="22" style="shape=partialRectangle;html=1;whiteSpace=wrap;connectable=0;fillColor=none;top=0;left=0;bottom=0;right=0;overflow=hidden;strokeColor=#FF0000;" parent="1_-RMzWt7AfscWZdjuar-131" vertex="1">
          <mxGeometry width="40" height="30" as="geometry">
            <mxRectangle width="40" height="30" as="alternateBounds" />
          </mxGeometry>
        </mxCell>
        <mxCell id="1_-RMzWt7AfscWZdjuar-133" value="0" style="shape=partialRectangle;html=1;whiteSpace=wrap;connectable=0;fillColor=none;top=0;left=0;bottom=0;right=0;overflow=hidden;fontColor=#FF0000;" parent="1_-RMzWt7AfscWZdjuar-131" vertex="1">
          <mxGeometry x="40" width="41" height="30" as="geometry">
            <mxRectangle width="41" height="30" as="alternateBounds" />
          </mxGeometry>
        </mxCell>
        <mxCell id="1_-RMzWt7AfscWZdjuar-134" style="shape=tableRow;horizontal=0;startSize=0;swimlaneHead=0;swimlaneBody=0;top=0;left=0;bottom=0;right=0;collapsible=0;dropTarget=0;fillColor=none;points=[[0,0.5],[1,0.5]];portConstraint=eastwest;" parent="1_-RMzWt7AfscWZdjuar-1" vertex="1">
          <mxGeometry y="60" width="81" height="30" as="geometry" />
        </mxCell>
        <mxCell id="1_-RMzWt7AfscWZdjuar-135" value="21" style="shape=partialRectangle;html=1;whiteSpace=wrap;connectable=0;fillColor=none;top=0;left=0;bottom=0;right=0;overflow=hidden;strokeColor=#FF0000;" parent="1_-RMzWt7AfscWZdjuar-134" vertex="1">
          <mxGeometry width="40" height="30" as="geometry">
            <mxRectangle width="40" height="30" as="alternateBounds" />
          </mxGeometry>
        </mxCell>
        <mxCell id="1_-RMzWt7AfscWZdjuar-136" value="0" style="shape=partialRectangle;html=1;whiteSpace=wrap;connectable=0;fillColor=none;top=0;left=0;bottom=0;right=0;overflow=hidden;fontColor=#FF0000;" parent="1_-RMzWt7AfscWZdjuar-134" vertex="1">
          <mxGeometry x="40" width="41" height="30" as="geometry">
            <mxRectangle width="41" height="30" as="alternateBounds" />
          </mxGeometry>
        </mxCell>
        <mxCell id="1_-RMzWt7AfscWZdjuar-2" value="" style="shape=tableRow;horizontal=0;startSize=0;swimlaneHead=0;swimlaneBody=0;top=0;left=0;bottom=0;right=0;collapsible=0;dropTarget=0;fillColor=none;points=[[0,0.5],[1,0.5]];portConstraint=eastwest;" parent="1_-RMzWt7AfscWZdjuar-1" vertex="1">
          <mxGeometry y="90" width="81" height="30" as="geometry" />
        </mxCell>
        <mxCell id="1_-RMzWt7AfscWZdjuar-28" value="20" style="shape=partialRectangle;html=1;whiteSpace=wrap;connectable=0;fillColor=none;top=0;left=0;bottom=0;right=0;overflow=hidden;strokeColor=#FF0000;" parent="1_-RMzWt7AfscWZdjuar-2" vertex="1">
          <mxGeometry width="40" height="30" as="geometry">
            <mxRectangle width="40" height="30" as="alternateBounds" />
          </mxGeometry>
        </mxCell>
        <mxCell id="1_-RMzWt7AfscWZdjuar-3" value="2" style="shape=partialRectangle;html=1;whiteSpace=wrap;connectable=0;fillColor=none;top=0;left=0;bottom=0;right=0;overflow=hidden;fontColor=#FF0000;" parent="1_-RMzWt7AfscWZdjuar-2" vertex="1">
          <mxGeometry x="40" width="41" height="30" as="geometry">
            <mxRectangle width="41" height="30" as="alternateBounds" />
          </mxGeometry>
        </mxCell>
        <mxCell id="1_-RMzWt7AfscWZdjuar-37" style="shape=tableRow;horizontal=0;startSize=0;swimlaneHead=0;swimlaneBody=0;top=0;left=0;bottom=0;right=0;collapsible=0;dropTarget=0;fillColor=none;points=[[0,0.5],[1,0.5]];portConstraint=eastwest;" parent="1_-RMzWt7AfscWZdjuar-1" vertex="1">
          <mxGeometry y="120" width="81" height="30" as="geometry" />
        </mxCell>
        <mxCell id="1_-RMzWt7AfscWZdjuar-38" value="19" style="shape=partialRectangle;html=1;whiteSpace=wrap;connectable=0;fillColor=none;top=0;left=0;bottom=0;right=0;overflow=hidden;strokeColor=#FF0000;" parent="1_-RMzWt7AfscWZdjuar-37" vertex="1">
          <mxGeometry width="40" height="30" as="geometry">
            <mxRectangle width="40" height="30" as="alternateBounds" />
          </mxGeometry>
        </mxCell>
        <mxCell id="1_-RMzWt7AfscWZdjuar-39" value="118" style="shape=partialRectangle;html=1;whiteSpace=wrap;connectable=0;fillColor=none;top=0;left=0;bottom=0;right=0;overflow=hidden;fontColor=#FF0000;" parent="1_-RMzWt7AfscWZdjuar-37" vertex="1">
          <mxGeometry x="40" width="41" height="30" as="geometry">
            <mxRectangle width="41" height="30" as="alternateBounds" />
          </mxGeometry>
        </mxCell>
        <mxCell id="1_-RMzWt7AfscWZdjuar-68" style="shape=tableRow;horizontal=0;startSize=0;swimlaneHead=0;swimlaneBody=0;top=0;left=0;bottom=0;right=0;collapsible=0;dropTarget=0;fillColor=none;points=[[0,0.5],[1,0.5]];portConstraint=eastwest;" parent="1_-RMzWt7AfscWZdjuar-1" vertex="1">
          <mxGeometry y="150" width="81" height="30" as="geometry" />
        </mxCell>
        <mxCell id="1_-RMzWt7AfscWZdjuar-69" value="18" style="shape=partialRectangle;html=1;whiteSpace=wrap;connectable=0;fillColor=none;top=0;left=0;bottom=0;right=0;overflow=hidden;strokeColor=#FF0000;" parent="1_-RMzWt7AfscWZdjuar-68" vertex="1">
          <mxGeometry width="40" height="30" as="geometry">
            <mxRectangle width="40" height="30" as="alternateBounds" />
          </mxGeometry>
        </mxCell>
        <mxCell id="1_-RMzWt7AfscWZdjuar-70" value="-22" style="shape=partialRectangle;html=1;whiteSpace=wrap;connectable=0;fillColor=none;top=0;left=0;bottom=0;right=0;overflow=hidden;fontColor=#FF0000;" parent="1_-RMzWt7AfscWZdjuar-68" vertex="1">
          <mxGeometry x="40" width="41" height="30" as="geometry">
            <mxRectangle width="41" height="30" as="alternateBounds" />
          </mxGeometry>
        </mxCell>
        <mxCell id="1_-RMzWt7AfscWZdjuar-71" style="shape=tableRow;horizontal=0;startSize=0;swimlaneHead=0;swimlaneBody=0;top=0;left=0;bottom=0;right=0;collapsible=0;dropTarget=0;fillColor=none;points=[[0,0.5],[1,0.5]];portConstraint=eastwest;" parent="1_-RMzWt7AfscWZdjuar-1" vertex="1">
          <mxGeometry y="180" width="81" height="30" as="geometry" />
        </mxCell>
        <mxCell id="1_-RMzWt7AfscWZdjuar-72" value="17" style="shape=partialRectangle;html=1;whiteSpace=wrap;connectable=0;fillColor=none;top=0;left=0;bottom=0;right=0;overflow=hidden;strokeColor=#FF0000;" parent="1_-RMzWt7AfscWZdjuar-71" vertex="1">
          <mxGeometry width="40" height="30" as="geometry">
            <mxRectangle width="40" height="30" as="alternateBounds" />
          </mxGeometry>
        </mxCell>
        <mxCell id="1_-RMzWt7AfscWZdjuar-73" value="-52" style="shape=partialRectangle;html=1;whiteSpace=wrap;connectable=0;fillColor=none;top=0;left=0;bottom=0;right=0;overflow=hidden;fontColor=#FF0000;" parent="1_-RMzWt7AfscWZdjuar-71" vertex="1">
          <mxGeometry x="40" width="41" height="30" as="geometry">
            <mxRectangle width="41" height="30" as="alternateBounds" />
          </mxGeometry>
        </mxCell>
        <mxCell id="1_-RMzWt7AfscWZdjuar-74" style="shape=tableRow;horizontal=0;startSize=0;swimlaneHead=0;swimlaneBody=0;top=0;left=0;bottom=0;right=0;collapsible=0;dropTarget=0;fillColor=none;points=[[0,0.5],[1,0.5]];portConstraint=eastwest;" parent="1_-RMzWt7AfscWZdjuar-1" vertex="1">
          <mxGeometry y="210" width="81" height="30" as="geometry" />
        </mxCell>
        <mxCell id="1_-RMzWt7AfscWZdjuar-75" value="16" style="shape=partialRectangle;html=1;whiteSpace=wrap;connectable=0;fillColor=none;top=0;left=0;bottom=0;right=0;overflow=hidden;strokeColor=#FF0000;" parent="1_-RMzWt7AfscWZdjuar-74" vertex="1">
          <mxGeometry width="40" height="30" as="geometry">
            <mxRectangle width="40" height="30" as="alternateBounds" />
          </mxGeometry>
        </mxCell>
        <mxCell id="1_-RMzWt7AfscWZdjuar-76" value="98" style="shape=partialRectangle;html=1;whiteSpace=wrap;connectable=0;fillColor=none;top=0;left=0;bottom=0;right=0;overflow=hidden;fontColor=#FF0000;" parent="1_-RMzWt7AfscWZdjuar-74" vertex="1">
          <mxGeometry x="40" width="41" height="30" as="geometry">
            <mxRectangle width="41" height="30" as="alternateBounds" />
          </mxGeometry>
        </mxCell>
        <mxCell id="1_-RMzWt7AfscWZdjuar-77" style="shape=tableRow;horizontal=0;startSize=0;swimlaneHead=0;swimlaneBody=0;top=0;left=0;bottom=0;right=0;collapsible=0;dropTarget=0;fillColor=none;points=[[0,0.5],[1,0.5]];portConstraint=eastwest;" parent="1_-RMzWt7AfscWZdjuar-1" vertex="1">
          <mxGeometry y="240" width="81" height="30" as="geometry" />
        </mxCell>
        <mxCell id="1_-RMzWt7AfscWZdjuar-78" value="15" style="shape=partialRectangle;html=1;whiteSpace=wrap;connectable=0;fillColor=none;top=0;left=0;bottom=0;right=0;overflow=hidden;strokeColor=#FF0000;" parent="1_-RMzWt7AfscWZdjuar-77" vertex="1">
          <mxGeometry width="40" height="30" as="geometry">
            <mxRectangle width="40" height="30" as="alternateBounds" />
          </mxGeometry>
        </mxCell>
        <mxCell id="1_-RMzWt7AfscWZdjuar-79" value="0" style="shape=partialRectangle;html=1;whiteSpace=wrap;connectable=0;fillColor=none;top=0;left=0;bottom=0;right=0;overflow=hidden;fontColor=#FF0000;" parent="1_-RMzWt7AfscWZdjuar-77" vertex="1">
          <mxGeometry x="40" width="41" height="30" as="geometry">
            <mxRectangle width="41" height="30" as="alternateBounds" />
          </mxGeometry>
        </mxCell>
        <mxCell id="1_-RMzWt7AfscWZdjuar-80" style="shape=tableRow;horizontal=0;startSize=0;swimlaneHead=0;swimlaneBody=0;top=0;left=0;bottom=0;right=0;collapsible=0;dropTarget=0;fillColor=none;points=[[0,0.5],[1,0.5]];portConstraint=eastwest;" parent="1_-RMzWt7AfscWZdjuar-1" vertex="1">
          <mxGeometry y="270" width="81" height="30" as="geometry" />
        </mxCell>
        <mxCell id="1_-RMzWt7AfscWZdjuar-81" value="14" style="shape=partialRectangle;html=1;whiteSpace=wrap;connectable=0;fillColor=none;top=0;left=0;bottom=0;right=0;overflow=hidden;strokeColor=#FF0000;" parent="1_-RMzWt7AfscWZdjuar-80" vertex="1">
          <mxGeometry width="40" height="30" as="geometry">
            <mxRectangle width="40" height="30" as="alternateBounds" />
          </mxGeometry>
        </mxCell>
        <mxCell id="1_-RMzWt7AfscWZdjuar-82" value="0" style="shape=partialRectangle;html=1;whiteSpace=wrap;connectable=0;fillColor=none;top=0;left=0;bottom=0;right=0;overflow=hidden;fontColor=#FF0000;" parent="1_-RMzWt7AfscWZdjuar-80" vertex="1">
          <mxGeometry x="40" width="41" height="30" as="geometry">
            <mxRectangle width="41" height="30" as="alternateBounds" />
          </mxGeometry>
        </mxCell>
        <mxCell id="1_-RMzWt7AfscWZdjuar-83" style="shape=tableRow;horizontal=0;startSize=0;swimlaneHead=0;swimlaneBody=0;top=0;left=0;bottom=0;right=0;collapsible=0;dropTarget=0;fillColor=none;points=[[0,0.5],[1,0.5]];portConstraint=eastwest;" parent="1_-RMzWt7AfscWZdjuar-1" vertex="1">
          <mxGeometry y="300" width="81" height="30" as="geometry" />
        </mxCell>
        <mxCell id="1_-RMzWt7AfscWZdjuar-84" value="13" style="shape=partialRectangle;html=1;whiteSpace=wrap;connectable=0;fillColor=none;top=0;left=0;bottom=0;right=0;overflow=hidden;strokeColor=#FF0000;" parent="1_-RMzWt7AfscWZdjuar-83" vertex="1">
          <mxGeometry width="40" height="30" as="geometry">
            <mxRectangle width="40" height="30" as="alternateBounds" />
          </mxGeometry>
        </mxCell>
        <mxCell id="1_-RMzWt7AfscWZdjuar-85" value="0" style="shape=partialRectangle;html=1;whiteSpace=wrap;connectable=0;fillColor=none;top=0;left=0;bottom=0;right=0;overflow=hidden;fontColor=#FF0000;" parent="1_-RMzWt7AfscWZdjuar-83" vertex="1">
          <mxGeometry x="40" width="41" height="30" as="geometry">
            <mxRectangle width="41" height="30" as="alternateBounds" />
          </mxGeometry>
        </mxCell>
        <mxCell id="1_-RMzWt7AfscWZdjuar-86" style="shape=tableRow;horizontal=0;startSize=0;swimlaneHead=0;swimlaneBody=0;top=0;left=0;bottom=0;right=0;collapsible=0;dropTarget=0;fillColor=none;points=[[0,0.5],[1,0.5]];portConstraint=eastwest;" parent="1_-RMzWt7AfscWZdjuar-1" vertex="1">
          <mxGeometry y="330" width="81" height="30" as="geometry" />
        </mxCell>
        <mxCell id="1_-RMzWt7AfscWZdjuar-87" value="12" style="shape=partialRectangle;html=1;whiteSpace=wrap;connectable=0;fillColor=none;top=0;left=0;bottom=0;right=0;overflow=hidden;strokeColor=#FF0000;" parent="1_-RMzWt7AfscWZdjuar-86" vertex="1">
          <mxGeometry width="40" height="30" as="geometry">
            <mxRectangle width="40" height="30" as="alternateBounds" />
          </mxGeometry>
        </mxCell>
        <mxCell id="1_-RMzWt7AfscWZdjuar-88" value="0" style="shape=partialRectangle;html=1;whiteSpace=wrap;connectable=0;fillColor=none;top=0;left=0;bottom=0;right=0;overflow=hidden;fontColor=#FF0000;" parent="1_-RMzWt7AfscWZdjuar-86" vertex="1">
          <mxGeometry x="40" width="41" height="30" as="geometry">
            <mxRectangle width="41" height="30" as="alternateBounds" />
          </mxGeometry>
        </mxCell>
        <mxCell id="1_-RMzWt7AfscWZdjuar-89" style="shape=tableRow;horizontal=0;startSize=0;swimlaneHead=0;swimlaneBody=0;top=0;left=0;bottom=0;right=0;collapsible=0;dropTarget=0;fillColor=none;points=[[0,0.5],[1,0.5]];portConstraint=eastwest;" parent="1_-RMzWt7AfscWZdjuar-1" vertex="1">
          <mxGeometry y="360" width="81" height="30" as="geometry" />
        </mxCell>
        <mxCell id="1_-RMzWt7AfscWZdjuar-90" value="11" style="shape=partialRectangle;html=1;whiteSpace=wrap;connectable=0;fillColor=none;top=0;left=0;bottom=0;right=0;overflow=hidden;strokeColor=#FF0000;" parent="1_-RMzWt7AfscWZdjuar-89" vertex="1">
          <mxGeometry width="40" height="30" as="geometry">
            <mxRectangle width="40" height="30" as="alternateBounds" />
          </mxGeometry>
        </mxCell>
        <mxCell id="1_-RMzWt7AfscWZdjuar-91" value="0" style="shape=partialRectangle;html=1;whiteSpace=wrap;connectable=0;fillColor=none;top=0;left=0;bottom=0;right=0;overflow=hidden;fontColor=#FF0000;" parent="1_-RMzWt7AfscWZdjuar-89" vertex="1">
          <mxGeometry x="40" width="41" height="30" as="geometry">
            <mxRectangle width="41" height="30" as="alternateBounds" />
          </mxGeometry>
        </mxCell>
        <mxCell id="1_-RMzWt7AfscWZdjuar-92" style="shape=tableRow;horizontal=0;startSize=0;swimlaneHead=0;swimlaneBody=0;top=0;left=0;bottom=0;right=0;collapsible=0;dropTarget=0;fillColor=none;points=[[0,0.5],[1,0.5]];portConstraint=eastwest;" parent="1_-RMzWt7AfscWZdjuar-1" vertex="1">
          <mxGeometry y="390" width="81" height="30" as="geometry" />
        </mxCell>
        <mxCell id="1_-RMzWt7AfscWZdjuar-93" value="10" style="shape=partialRectangle;html=1;whiteSpace=wrap;connectable=0;fillColor=none;top=0;left=0;bottom=0;right=0;overflow=hidden;strokeColor=#FF0000;" parent="1_-RMzWt7AfscWZdjuar-92" vertex="1">
          <mxGeometry width="40" height="30" as="geometry">
            <mxRectangle width="40" height="30" as="alternateBounds" />
          </mxGeometry>
        </mxCell>
        <mxCell id="1_-RMzWt7AfscWZdjuar-94" value="0" style="shape=partialRectangle;html=1;whiteSpace=wrap;connectable=0;fillColor=none;top=0;left=0;bottom=0;right=0;overflow=hidden;fontColor=#FF0000;" parent="1_-RMzWt7AfscWZdjuar-92" vertex="1">
          <mxGeometry x="40" width="41" height="30" as="geometry">
            <mxRectangle width="41" height="30" as="alternateBounds" />
          </mxGeometry>
        </mxCell>
        <mxCell id="1_-RMzWt7AfscWZdjuar-95" style="shape=tableRow;horizontal=0;startSize=0;swimlaneHead=0;swimlaneBody=0;top=0;left=0;bottom=0;right=0;collapsible=0;dropTarget=0;fillColor=none;points=[[0,0.5],[1,0.5]];portConstraint=eastwest;" parent="1_-RMzWt7AfscWZdjuar-1" vertex="1">
          <mxGeometry y="420" width="81" height="30" as="geometry" />
        </mxCell>
        <mxCell id="1_-RMzWt7AfscWZdjuar-96" value="9" style="shape=partialRectangle;html=1;whiteSpace=wrap;connectable=0;fillColor=none;top=0;left=0;bottom=0;right=0;overflow=hidden;strokeColor=#FF0000;" parent="1_-RMzWt7AfscWZdjuar-95" vertex="1">
          <mxGeometry width="40" height="30" as="geometry">
            <mxRectangle width="40" height="30" as="alternateBounds" />
          </mxGeometry>
        </mxCell>
        <mxCell id="1_-RMzWt7AfscWZdjuar-97" value="0" style="shape=partialRectangle;html=1;whiteSpace=wrap;connectable=0;fillColor=none;top=0;left=0;bottom=0;right=0;overflow=hidden;fontColor=#FF0000;" parent="1_-RMzWt7AfscWZdjuar-95" vertex="1">
          <mxGeometry x="40" width="41" height="30" as="geometry">
            <mxRectangle width="41" height="30" as="alternateBounds" />
          </mxGeometry>
        </mxCell>
        <mxCell id="1_-RMzWt7AfscWZdjuar-98" style="shape=tableRow;horizontal=0;startSize=0;swimlaneHead=0;swimlaneBody=0;top=0;left=0;bottom=0;right=0;collapsible=0;dropTarget=0;fillColor=none;points=[[0,0.5],[1,0.5]];portConstraint=eastwest;" parent="1_-RMzWt7AfscWZdjuar-1" vertex="1">
          <mxGeometry y="450" width="81" height="30" as="geometry" />
        </mxCell>
        <mxCell id="1_-RMzWt7AfscWZdjuar-99" value="8" style="shape=partialRectangle;html=1;whiteSpace=wrap;connectable=0;fillColor=none;top=0;left=0;bottom=0;right=0;overflow=hidden;strokeColor=#FF0000;" parent="1_-RMzWt7AfscWZdjuar-98" vertex="1">
          <mxGeometry width="40" height="30" as="geometry">
            <mxRectangle width="40" height="30" as="alternateBounds" />
          </mxGeometry>
        </mxCell>
        <mxCell id="1_-RMzWt7AfscWZdjuar-100" value="10" style="shape=partialRectangle;html=1;whiteSpace=wrap;connectable=0;fillColor=none;top=0;left=0;bottom=0;right=0;overflow=hidden;fontColor=#FF0000;" parent="1_-RMzWt7AfscWZdjuar-98" vertex="1">
          <mxGeometry x="40" width="41" height="30" as="geometry">
            <mxRectangle width="41" height="30" as="alternateBounds" />
          </mxGeometry>
        </mxCell>
        <mxCell id="1_-RMzWt7AfscWZdjuar-101" style="shape=tableRow;horizontal=0;startSize=0;swimlaneHead=0;swimlaneBody=0;top=0;left=0;bottom=0;right=0;collapsible=0;dropTarget=0;fillColor=none;points=[[0,0.5],[1,0.5]];portConstraint=eastwest;" parent="1_-RMzWt7AfscWZdjuar-1" vertex="1">
          <mxGeometry y="480" width="81" height="30" as="geometry" />
        </mxCell>
        <mxCell id="1_-RMzWt7AfscWZdjuar-102" value="7" style="shape=partialRectangle;html=1;whiteSpace=wrap;connectable=0;fillColor=none;top=0;left=0;bottom=0;right=0;overflow=hidden;strokeColor=#FF0000;" parent="1_-RMzWt7AfscWZdjuar-101" vertex="1">
          <mxGeometry width="40" height="30" as="geometry">
            <mxRectangle width="40" height="30" as="alternateBounds" />
          </mxGeometry>
        </mxCell>
        <mxCell id="1_-RMzWt7AfscWZdjuar-103" value="0" style="shape=partialRectangle;html=1;whiteSpace=wrap;connectable=0;fillColor=none;top=0;left=0;bottom=0;right=0;overflow=hidden;fontColor=#FF0000;" parent="1_-RMzWt7AfscWZdjuar-101" vertex="1">
          <mxGeometry x="40" width="41" height="30" as="geometry">
            <mxRectangle width="41" height="30" as="alternateBounds" />
          </mxGeometry>
        </mxCell>
        <mxCell id="1_-RMzWt7AfscWZdjuar-104" style="shape=tableRow;horizontal=0;startSize=0;swimlaneHead=0;swimlaneBody=0;top=0;left=0;bottom=0;right=0;collapsible=0;dropTarget=0;fillColor=none;points=[[0,0.5],[1,0.5]];portConstraint=eastwest;" parent="1_-RMzWt7AfscWZdjuar-1" vertex="1">
          <mxGeometry y="510" width="81" height="30" as="geometry" />
        </mxCell>
        <mxCell id="1_-RMzWt7AfscWZdjuar-105" value="6" style="shape=partialRectangle;html=1;whiteSpace=wrap;connectable=0;fillColor=none;top=0;left=0;bottom=0;right=0;overflow=hidden;strokeColor=#FF0000;" parent="1_-RMzWt7AfscWZdjuar-104" vertex="1">
          <mxGeometry width="40" height="30" as="geometry">
            <mxRectangle width="40" height="30" as="alternateBounds" />
          </mxGeometry>
        </mxCell>
        <mxCell id="1_-RMzWt7AfscWZdjuar-106" value="97" style="shape=partialRectangle;html=1;whiteSpace=wrap;connectable=0;fillColor=none;top=0;left=0;bottom=0;right=0;overflow=hidden;fontColor=#FF0000;" parent="1_-RMzWt7AfscWZdjuar-104" vertex="1">
          <mxGeometry x="40" width="41" height="30" as="geometry">
            <mxRectangle width="41" height="30" as="alternateBounds" />
          </mxGeometry>
        </mxCell>
        <mxCell id="1_-RMzWt7AfscWZdjuar-107" style="shape=tableRow;horizontal=0;startSize=0;swimlaneHead=0;swimlaneBody=0;top=0;left=0;bottom=0;right=0;collapsible=0;dropTarget=0;fillColor=none;points=[[0,0.5],[1,0.5]];portConstraint=eastwest;" parent="1_-RMzWt7AfscWZdjuar-1" vertex="1">
          <mxGeometry y="540" width="81" height="30" as="geometry" />
        </mxCell>
        <mxCell id="1_-RMzWt7AfscWZdjuar-108" value="5" style="shape=partialRectangle;html=1;whiteSpace=wrap;connectable=0;fillColor=none;top=0;left=0;bottom=0;right=0;overflow=hidden;strokeColor=#FF0000;" parent="1_-RMzWt7AfscWZdjuar-107" vertex="1">
          <mxGeometry width="40" height="30" as="geometry">
            <mxRectangle width="40" height="30" as="alternateBounds" />
          </mxGeometry>
        </mxCell>
        <mxCell id="1_-RMzWt7AfscWZdjuar-109" value="-2" style="shape=partialRectangle;html=1;whiteSpace=wrap;connectable=0;fillColor=none;top=0;left=0;bottom=0;right=0;overflow=hidden;fontColor=#FF0000;" parent="1_-RMzWt7AfscWZdjuar-107" vertex="1">
          <mxGeometry x="40" width="41" height="30" as="geometry">
            <mxRectangle width="41" height="30" as="alternateBounds" />
          </mxGeometry>
        </mxCell>
        <mxCell id="1_-RMzWt7AfscWZdjuar-110" style="shape=tableRow;horizontal=0;startSize=0;swimlaneHead=0;swimlaneBody=0;top=0;left=0;bottom=0;right=0;collapsible=0;dropTarget=0;fillColor=none;points=[[0,0.5],[1,0.5]];portConstraint=eastwest;" parent="1_-RMzWt7AfscWZdjuar-1" vertex="1">
          <mxGeometry y="570" width="81" height="30" as="geometry" />
        </mxCell>
        <mxCell id="1_-RMzWt7AfscWZdjuar-111" value="4" style="shape=partialRectangle;html=1;whiteSpace=wrap;connectable=0;fillColor=none;top=0;left=0;bottom=0;right=0;overflow=hidden;strokeColor=#FF0000;" parent="1_-RMzWt7AfscWZdjuar-110" vertex="1">
          <mxGeometry width="40" height="30" as="geometry">
            <mxRectangle width="40" height="30" as="alternateBounds" />
          </mxGeometry>
        </mxCell>
        <mxCell id="1_-RMzWt7AfscWZdjuar-112" value="-48" style="shape=partialRectangle;html=1;whiteSpace=wrap;connectable=0;fillColor=none;top=0;left=0;bottom=0;right=0;overflow=hidden;fontColor=#FF0000;" parent="1_-RMzWt7AfscWZdjuar-110" vertex="1">
          <mxGeometry x="40" width="41" height="30" as="geometry">
            <mxRectangle width="41" height="30" as="alternateBounds" />
          </mxGeometry>
        </mxCell>
        <mxCell id="1_-RMzWt7AfscWZdjuar-113" style="shape=tableRow;horizontal=0;startSize=0;swimlaneHead=0;swimlaneBody=0;top=0;left=0;bottom=0;right=0;collapsible=0;dropTarget=0;fillColor=none;points=[[0,0.5],[1,0.5]];portConstraint=eastwest;" parent="1_-RMzWt7AfscWZdjuar-1" vertex="1">
          <mxGeometry y="600" width="81" height="30" as="geometry" />
        </mxCell>
        <mxCell id="1_-RMzWt7AfscWZdjuar-114" value="3" style="shape=partialRectangle;html=1;whiteSpace=wrap;connectable=0;fillColor=none;top=0;left=0;bottom=0;right=0;overflow=hidden;strokeColor=#FF0000;" parent="1_-RMzWt7AfscWZdjuar-113" vertex="1">
          <mxGeometry width="40" height="30" as="geometry">
            <mxRectangle width="40" height="30" as="alternateBounds" />
          </mxGeometry>
        </mxCell>
        <mxCell id="1_-RMzWt7AfscWZdjuar-115" value="0" style="shape=partialRectangle;html=1;whiteSpace=wrap;connectable=0;fillColor=none;top=0;left=0;bottom=0;right=0;overflow=hidden;fontColor=#FF0000;" parent="1_-RMzWt7AfscWZdjuar-113" vertex="1">
          <mxGeometry x="40" width="41" height="30" as="geometry">
            <mxRectangle width="41" height="30" as="alternateBounds" />
          </mxGeometry>
        </mxCell>
        <mxCell id="1_-RMzWt7AfscWZdjuar-116" style="shape=tableRow;horizontal=0;startSize=0;swimlaneHead=0;swimlaneBody=0;top=0;left=0;bottom=0;right=0;collapsible=0;dropTarget=0;fillColor=none;points=[[0,0.5],[1,0.5]];portConstraint=eastwest;" parent="1_-RMzWt7AfscWZdjuar-1" vertex="1">
          <mxGeometry y="630" width="81" height="30" as="geometry" />
        </mxCell>
        <mxCell id="1_-RMzWt7AfscWZdjuar-117" value="2" style="shape=partialRectangle;html=1;whiteSpace=wrap;connectable=0;fillColor=none;top=0;left=0;bottom=0;right=0;overflow=hidden;strokeColor=#FF0000;" parent="1_-RMzWt7AfscWZdjuar-116" vertex="1">
          <mxGeometry width="40" height="30" as="geometry">
            <mxRectangle width="40" height="30" as="alternateBounds" />
          </mxGeometry>
        </mxCell>
        <mxCell id="1_-RMzWt7AfscWZdjuar-118" value="0" style="shape=partialRectangle;html=1;whiteSpace=wrap;connectable=0;fillColor=none;top=0;left=0;bottom=0;right=0;overflow=hidden;fontColor=#FF0000;" parent="1_-RMzWt7AfscWZdjuar-116" vertex="1">
          <mxGeometry x="40" width="41" height="30" as="geometry">
            <mxRectangle width="41" height="30" as="alternateBounds" />
          </mxGeometry>
        </mxCell>
        <mxCell id="1_-RMzWt7AfscWZdjuar-119" style="shape=tableRow;horizontal=0;startSize=0;swimlaneHead=0;swimlaneBody=0;top=0;left=0;bottom=0;right=0;collapsible=0;dropTarget=0;fillColor=none;points=[[0,0.5],[1,0.5]];portConstraint=eastwest;" parent="1_-RMzWt7AfscWZdjuar-1" vertex="1">
          <mxGeometry y="660" width="81" height="30" as="geometry" />
        </mxCell>
        <mxCell id="1_-RMzWt7AfscWZdjuar-120" value="1" style="shape=partialRectangle;html=1;whiteSpace=wrap;connectable=0;fillColor=none;top=0;left=0;bottom=0;right=0;overflow=hidden;strokeColor=#FF0000;" parent="1_-RMzWt7AfscWZdjuar-119" vertex="1">
          <mxGeometry width="40" height="30" as="geometry">
            <mxRectangle width="40" height="30" as="alternateBounds" />
          </mxGeometry>
        </mxCell>
        <mxCell id="1_-RMzWt7AfscWZdjuar-121" value="1" style="shape=partialRectangle;html=1;whiteSpace=wrap;connectable=0;fillColor=none;top=0;left=0;bottom=0;right=0;overflow=hidden;fontColor=#FF0000;" parent="1_-RMzWt7AfscWZdjuar-119" vertex="1">
          <mxGeometry x="40" width="41" height="30" as="geometry">
            <mxRectangle width="41" height="30" as="alternateBounds" />
          </mxGeometry>
        </mxCell>
        <mxCell id="1_-RMzWt7AfscWZdjuar-122" style="shape=tableRow;horizontal=0;startSize=0;swimlaneHead=0;swimlaneBody=0;top=0;left=0;bottom=0;right=0;collapsible=0;dropTarget=0;fillColor=none;points=[[0,0.5],[1,0.5]];portConstraint=eastwest;" parent="1_-RMzWt7AfscWZdjuar-1" vertex="1">
          <mxGeometry y="690" width="81" height="30" as="geometry" />
        </mxCell>
        <mxCell id="1_-RMzWt7AfscWZdjuar-123" value="0" style="shape=partialRectangle;html=1;whiteSpace=wrap;connectable=0;fillColor=none;top=0;left=0;bottom=0;right=0;overflow=hidden;strokeColor=#FF0000;" parent="1_-RMzWt7AfscWZdjuar-122" vertex="1">
          <mxGeometry width="40" height="30" as="geometry">
            <mxRectangle width="40" height="30" as="alternateBounds" />
          </mxGeometry>
        </mxCell>
        <mxCell id="1_-RMzWt7AfscWZdjuar-124" value="2" style="shape=partialRectangle;html=1;whiteSpace=wrap;connectable=0;fillColor=none;top=0;left=0;bottom=0;right=0;overflow=hidden;fontColor=#FF0000;" parent="1_-RMzWt7AfscWZdjuar-122" vertex="1">
          <mxGeometry x="40" width="41" height="30" as="geometry">
            <mxRectangle width="41" height="30" as="alternateBounds" />
          </mxGeometry>
        </mxCell>
        <mxCell id="1_-RMzWt7AfscWZdjuar-137" value="" style="endArrow=none;html=1;rounded=0;" parent="1" edge="1">
          <mxGeometry width="50" height="50" relative="1" as="geometry">
            <mxPoint x="358" y="700" as="sourcePoint" />
            <mxPoint x="414" y="700" as="targetPoint" />
          </mxGeometry>
        </mxCell>
        <mxCell id="1_-RMzWt7AfscWZdjuar-138" value="" style="endArrow=none;html=1;rounded=0;" parent="1" edge="1">
          <mxGeometry width="50" height="50" relative="1" as="geometry">
            <mxPoint x="358" y="580" as="sourcePoint" />
            <mxPoint x="414" y="580" as="targetPoint" />
          </mxGeometry>
        </mxCell>
        <mxCell id="1_-RMzWt7AfscWZdjuar-139" value="" style="endArrow=none;html=1;rounded=0;" parent="1" edge="1">
          <mxGeometry width="50" height="50" relative="1" as="geometry">
            <mxPoint x="358" y="340" as="sourcePoint" />
            <mxPoint x="414" y="340" as="targetPoint" />
          </mxGeometry>
        </mxCell>
        <mxCell id="1_-RMzWt7AfscWZdjuar-140" value="" style="endArrow=none;html=1;rounded=0;fillColor=#FF0000;" parent="1" edge="1">
          <mxGeometry width="50" height="50" relative="1" as="geometry">
            <mxPoint x="358" y="220" as="sourcePoint" />
            <mxPoint x="414" y="220" as="targetPoint" />
          </mxGeometry>
        </mxCell>
        <mxCell id="1_-RMzWt7AfscWZdjuar-141" value="8 Bytes long long a_0" style="text;html=1;align=center;verticalAlign=middle;resizable=0;points=[];autosize=1;strokeColor=none;fillColor=none;" parent="1" vertex="1">
          <mxGeometry x="360" y="440" width="130" height="20" as="geometry" />
        </mxCell>
        <mxCell id="1_-RMzWt7AfscWZdjuar-142" value="4 Bytes padding" style="text;html=1;align=center;verticalAlign=middle;resizable=0;points=[];autosize=1;strokeColor=none;fillColor=none;" parent="1" vertex="1">
          <mxGeometry x="360" y="620" width="100" height="20" as="geometry" />
        </mxCell>
        <mxCell id="1_-RMzWt7AfscWZdjuar-143" value="4 Bytes int a" style="text;html=1;align=center;verticalAlign=middle;resizable=0;points=[];autosize=1;strokeColor=none;fillColor=none;" parent="1" vertex="1">
          <mxGeometry x="360" y="750" width="80" height="20" as="geometry" />
        </mxCell>
        <mxCell id="1_-RMzWt7AfscWZdjuar-144" value="1 Byte char b" style="text;html=1;align=center;verticalAlign=middle;resizable=0;points=[];autosize=1;strokeColor=none;fillColor=none;" parent="1" vertex="1">
          <mxGeometry x="360" y="315" width="90" height="20" as="geometry" />
        </mxCell>
        <mxCell id="1_-RMzWt7AfscWZdjuar-145" value="" style="endArrow=none;html=1;rounded=0;" parent="1" edge="1">
          <mxGeometry width="50" height="50" relative="1" as="geometry">
            <mxPoint x="358" y="310" as="sourcePoint" />
            <mxPoint x="414" y="310" as="targetPoint" />
          </mxGeometry>
        </mxCell>
        <mxCell id="1_-RMzWt7AfscWZdjuar-146" value="3 Bytes Padding" style="text;html=1;align=center;verticalAlign=middle;resizable=0;points=[];autosize=1;strokeColor=none;fillColor=none;" parent="1" vertex="1">
          <mxGeometry x="360" y="250" width="100" height="20" as="geometry" />
        </mxCell>
        <mxCell id="1_-RMzWt7AfscWZdjuar-147" value="4 Bytes int c" style="text;html=1;align=center;verticalAlign=middle;resizable=0;points=[];autosize=1;strokeColor=none;fillColor=none;" parent="1" vertex="1">
          <mxGeometry x="355" y="150" width="80" height="20" as="geometry" />
        </mxCell>
        <mxCell id="1_-RMzWt7AfscWZdjuar-149" value="" style="endArrow=none;html=1;rounded=0;fillColor=#FF0000;" parent="1" edge="1">
          <mxGeometry width="50" height="50" relative="1" as="geometry">
            <mxPoint x="200" y="100" as="sourcePoint" />
            <mxPoint x="256" y="100" as="targetPoint" />
          </mxGeometry>
        </mxCell>
        <mxCell id="1_-RMzWt7AfscWZdjuar-150" value="" style="endArrow=none;html=1;rounded=0;fillColor=#FF0000;" parent="1" edge="1">
          <mxGeometry width="50" height="50" relative="1" as="geometry">
            <mxPoint x="200" y="820" as="sourcePoint" />
            <mxPoint x="256" y="820" as="targetPoint" />
          </mxGeometry>
        </mxCell>
        <mxCell id="1_-RMzWt7AfscWZdjuar-151" value="内存高地址" style="text;html=1;align=center;verticalAlign=middle;resizable=0;points=[];autosize=1;strokeColor=none;fillColor=none;" parent="1" vertex="1">
          <mxGeometry x="120" y="90" width="80" height="20" as="geometry" />
        </mxCell>
        <mxCell id="1_-RMzWt7AfscWZdjuar-152" value="内存低地址" style="text;html=1;align=center;verticalAlign=middle;resizable=0;points=[];autosize=1;strokeColor=none;fillColor=none;" parent="1" vertex="1">
          <mxGeometry x="120" y="810" width="80" height="20" as="geometry" />
        </mxCell>
        <mxCell id="1_-RMzWt7AfscWZdjuar-153" value="" style="endArrow=classic;html=1;rounded=0;fontColor=#FF0000;fillColor=#FF0000;exitX=0.495;exitY=-0.15;exitDx=0;exitDy=0;exitPerimeter=0;" parent="1" source="1_-RMzWt7AfscWZdjuar-152" edge="1">
          <mxGeometry width="50" height="50" relative="1" as="geometry">
            <mxPoint x="110" y="160" as="sourcePoint" />
            <mxPoint x="160" y="110" as="targetPoint" />
          </mxGeometry>
        </mxCell>
        <mxCell id="1_-RMzWt7AfscWZdjuar-155" value="" style="endArrow=classic;html=1;rounded=0;fontColor=#FF0000;fillColor=#FF0000;" parent="1" edge="1">
          <mxGeometry width="50" height="50" relative="1" as="geometry">
            <mxPoint x="500" y="810" as="sourcePoint" />
            <mxPoint x="360" y="810" as="targetPoint" />
          </mxGeometry>
        </mxCell>
        <mxCell id="1_-RMzWt7AfscWZdjuar-160" value="&amp;amp;(Base.a)" style="edgeLabel;html=1;align=center;verticalAlign=middle;resizable=0;points=[];fontColor=#000000;rotation=0;" parent="1_-RMzWt7AfscWZdjuar-155" vertex="1" connectable="0">
          <mxGeometry x="-0.8514" y="-2" relative="1" as="geometry">
            <mxPoint x="30" y="2" as="offset" />
          </mxGeometry>
        </mxCell>
        <mxCell id="1_-RMzWt7AfscWZdjuar-161" value="" style="endArrow=classic;html=1;rounded=0;fontColor=#FF0000;fillColor=#FF0000;" parent="1" edge="1">
          <mxGeometry width="50" height="50" relative="1" as="geometry">
            <mxPoint x="500" y="570" as="sourcePoint" />
            <mxPoint x="360" y="570" as="targetPoint" />
          </mxGeometry>
        </mxCell>
        <mxCell id="1_-RMzWt7AfscWZdjuar-162" value="&amp;amp;(Base.a_0)" style="edgeLabel;html=1;align=center;verticalAlign=middle;resizable=0;points=[];fontColor=#000000;rotation=0;" parent="1_-RMzWt7AfscWZdjuar-161" vertex="1" connectable="0">
          <mxGeometry x="-0.8514" y="-2" relative="1" as="geometry">
            <mxPoint x="30" y="2" as="offset" />
          </mxGeometry>
        </mxCell>
        <mxCell id="1_-RMzWt7AfscWZdjuar-163" value="" style="endArrow=classic;html=1;rounded=0;fontColor=#FF0000;fillColor=#FF0000;" parent="1" edge="1">
          <mxGeometry width="50" height="50" relative="1" as="geometry">
            <mxPoint x="590" y="324.5" as="sourcePoint" />
            <mxPoint x="450" y="324.5" as="targetPoint" />
          </mxGeometry>
        </mxCell>
        <mxCell id="1_-RMzWt7AfscWZdjuar-164" value="&amp;amp;(Base.b)" style="edgeLabel;html=1;align=center;verticalAlign=middle;resizable=0;points=[];fontColor=#000000;rotation=0;" parent="1_-RMzWt7AfscWZdjuar-163" vertex="1" connectable="0">
          <mxGeometry x="-0.8514" y="-2" relative="1" as="geometry">
            <mxPoint x="-59" y="3" as="offset" />
          </mxGeometry>
        </mxCell>
        <mxCell id="1_-RMzWt7AfscWZdjuar-165" value="" style="endArrow=classic;html=1;rounded=0;fontColor=#FF0000;fillColor=#FF0000;" parent="1" edge="1">
          <mxGeometry width="50" height="50" relative="1" as="geometry">
            <mxPoint x="500" y="210" as="sourcePoint" />
            <mxPoint x="360" y="210" as="targetPoint" />
          </mxGeometry>
        </mxCell>
        <mxCell id="1_-RMzWt7AfscWZdjuar-166" value="&amp;amp;(Base.c)" style="edgeLabel;html=1;align=center;verticalAlign=middle;resizable=0;points=[];fontColor=#000000;rotation=0;" parent="1_-RMzWt7AfscWZdjuar-165" vertex="1" connectable="0">
          <mxGeometry x="-0.8514" y="-2" relative="1" as="geometry">
            <mxPoint x="30" y="2" as="offset" />
          </mxGeometry>
        </mxCell>
        <mxCell id="KbBFZsVhA03yQQ6g9GQD-1" value="&lt;div style=&quot;color: rgb(212, 212, 212); background-color: rgb(30, 30, 30); font-family: Consolas, &amp;quot;Courier New&amp;quot;, monospace; font-weight: normal; font-size: 14px; line-height: 19px;&quot;&gt;&lt;div&gt;&lt;span style=&quot;color: #569cd6;&quot;&gt;class&lt;/span&gt;&lt;span style=&quot;color: #d4d4d4;&quot;&gt; &lt;/span&gt;&lt;span style=&quot;color: #4ec9b0;&quot;&gt;Base&lt;/span&gt;&lt;span style=&quot;color: #d4d4d4;&quot;&gt; {&lt;/span&gt;&lt;/div&gt;&lt;div&gt;&lt;span style=&quot;color: #569cd6;&quot;&gt;public:&lt;/span&gt;&lt;/div&gt;&lt;div&gt;&lt;span style=&quot;color: #d4d4d4;&quot;&gt;&amp;nbsp; &amp;nbsp; &lt;/span&gt;&lt;span style=&quot;color: #569cd6;&quot;&gt;int&lt;/span&gt;&lt;span style=&quot;color: #d4d4d4;&quot;&gt; &lt;/span&gt;&lt;span style=&quot;color: #9cdcfe;&quot;&gt;a&lt;/span&gt;&lt;span style=&quot;color: #d4d4d4;&quot;&gt; = &lt;/span&gt;&lt;span style=&quot;color: #b5cea8;&quot;&gt;258&lt;/span&gt;&lt;span style=&quot;color: #d4d4d4;&quot;&gt;;&lt;/span&gt;&lt;/div&gt;&lt;div&gt;&lt;span style=&quot;color: #d4d4d4;&quot;&gt;&amp;nbsp; &amp;nbsp; &lt;/span&gt;&lt;span style=&quot;color: #569cd6;&quot;&gt;long&lt;/span&gt;&lt;span style=&quot;color: #d4d4d4;&quot;&gt; &lt;/span&gt;&lt;span style=&quot;color: #569cd6;&quot;&gt;long&lt;/span&gt;&lt;span style=&quot;color: #d4d4d4;&quot;&gt; &lt;/span&gt;&lt;span style=&quot;color: #9cdcfe;&quot;&gt;a_0&lt;/span&gt;&lt;span style=&quot;color: #d4d4d4;&quot;&gt; = &lt;/span&gt;&lt;span style=&quot;color: #b5cea8;&quot;&gt;10&lt;/span&gt;&lt;span style=&quot;color: #d4d4d4;&quot;&gt;;&lt;/span&gt;&lt;/div&gt;&lt;div&gt;&lt;span style=&quot;color: #d4d4d4;&quot;&gt;&amp;nbsp; &amp;nbsp; &lt;/span&gt;&lt;span style=&quot;color: #569cd6;&quot;&gt;char&lt;/span&gt;&lt;span style=&quot;color: #d4d4d4;&quot;&gt; &lt;/span&gt;&lt;span style=&quot;color: #9cdcfe;&quot;&gt;b&lt;/span&gt;&lt;span style=&quot;color: #d4d4d4;&quot;&gt; = &lt;/span&gt;&lt;span style=&quot;color: #ce9178;&quot;&gt;&#39;b&#39;&lt;/span&gt;&lt;span style=&quot;color: #d4d4d4;&quot;&gt;;&lt;/span&gt;&lt;/div&gt;&lt;div&gt;&lt;span style=&quot;color: #d4d4d4;&quot;&gt;&amp;nbsp; &amp;nbsp; &lt;/span&gt;&lt;span style=&quot;color: #569cd6;&quot;&gt;int&lt;/span&gt;&lt;span style=&quot;color: #d4d4d4;&quot;&gt; &lt;/span&gt;&lt;span style=&quot;color: #9cdcfe;&quot;&gt;c&lt;/span&gt;&lt;span style=&quot;color: #d4d4d4;&quot;&gt; = &lt;/span&gt;&lt;span style=&quot;color: #b5cea8;&quot;&gt;2&lt;/span&gt;&lt;span style=&quot;color: #d4d4d4;&quot;&gt;;&lt;/span&gt;&lt;/div&gt;&lt;div&gt;&lt;span style=&quot;color: #d4d4d4;&quot;&gt;};&lt;/span&gt;&lt;/div&gt;&lt;/div&gt;" style="text;whiteSpace=wrap;html=1;" vertex="1" parent="1">
          <mxGeometry x="630" y="17.5" width="190" height="165" as="geometry" />
        </mxCell>
        <mxCell id="KbBFZsVhA03yQQ6g9GQD-2" value="结构体中的数据在栈中的排列&lt;br&gt;与定义时正好相反：先定义的在&lt;br&gt;低地址，后定义的在高地址" style="text;html=1;align=center;verticalAlign=middle;resizable=0;points=[];autosize=1;strokeColor=none;fillColor=none;" vertex="1" parent="1">
          <mxGeometry x="630" y="170" width="180" height="50" as="geometry" />
        </mxCell>
        <mxCell id="KbBFZsVhA03yQQ6g9GQD-3" value="0x61fee0" style="text;html=1;align=center;verticalAlign=middle;resizable=0;points=[];autosize=1;strokeColor=none;fillColor=none;" vertex="1" parent="1">
          <mxGeometry x="195" y="800" width="70" height="20" as="geometry" />
        </mxCell>
        <mxCell id="KbBFZsVhA03yQQ6g9GQD-4" value="0x61fee8" style="text;html=1;align=center;verticalAlign=middle;resizable=0;points=[];autosize=1;strokeColor=none;fillColor=none;" vertex="1" parent="1">
          <mxGeometry x="190" y="560" width="70" height="20" as="geometry" />
        </mxCell>
        <mxCell id="KbBFZsVhA03yQQ6g9GQD-6" value="0x61fef0" style="text;html=1;align=center;verticalAlign=middle;resizable=0;points=[];autosize=1;strokeColor=none;fillColor=none;" vertex="1" parent="1">
          <mxGeometry x="195" y="315" width="60" height="20" as="geometry" />
        </mxCell>
        <mxCell id="KbBFZsVhA03yQQ6g9GQD-7" value="0x61fef4" style="text;html=1;align=center;verticalAlign=middle;resizable=0;points=[];autosize=1;strokeColor=none;fillColor=none;" vertex="1" parent="1">
          <mxGeometry x="195" y="200" width="60" height="20" as="geometry" />
        </mxCell>
        <mxCell id="KbBFZsVhA03yQQ6g9GQD-10" value="偏移" style="text;html=1;align=center;verticalAlign=middle;resizable=0;points=[];autosize=1;strokeColor=none;fillColor=none;" vertex="1" parent="1">
          <mxGeometry x="270" y="80" width="40" height="20" as="geometry" />
        </mxCell>
        <mxCell id="KbBFZsVhA03yQQ6g9GQD-11" value="数据" style="text;html=1;align=center;verticalAlign=middle;resizable=0;points=[];autosize=1;strokeColor=none;fillColor=none;fontColor=#FF0000;" vertex="1" parent="1">
          <mxGeometry x="310" y="80" width="40" height="20" as="geometry" />
        </mxCell>
      </root>
    </mxGraphModel>
  </diagram>
</mxfile>
